<?xml version="1.0" standalone="no"?>
<!DOCTYPE svg PUBLIC "-//W3C//DTD SVG 20010904//EN"
 "http://www.w3.org/TR/2001/REC-SVG-20010904/DTD/svg10.dtd">
<svg version="1.0" xmlns="http://www.w3.org/2000/svg"
 width="828.000000pt" height="828.000000pt" viewBox="0 0 828.000000 828.000000"
 preserveAspectRatio="xMidYMid meet">
<metadata>
Created by potrace 1.11, written by Peter Selinger 2001-2013
</metadata>
<g transform="translate(0.000000,828.000000) scale(0.100000,-0.100000)"
fill="#000000" stroke="none">
<path d="M3930 8224 c-815 -48 -1583 -319 -2230 -787 -946 -685 -1546 -1718
-1677 -2889 -23 -206 -22 -615 1 -826 93 -846 441 -1638 997 -2267 624 -706
1447 -1171 2369 -1339 267 -49 412 -60 750 -60 240 0 351 4 465 17 695 83
1298 305 1865 688 740 498 1304 1234 1588 2069 242 713 284 1451 122 2175
-129 580 -362 1088 -715 1560 -326 436 -721 793 -1186 1070 -400 239 -793 395
-1244 494 -183 40 -294 58 -462 76 -138 15 -521 26 -643 19z m382 -1611 c11
-9 18 -11 23 -4 3 6 22 11 41 11 29 0 34 -3 34 -24 0 -13 6 -24 13 -23 38 1
57 -5 57 -18 0 -8 21 -32 48 -53 84 -67 112 -96 112 -113 0 -10 14 -23 30 -31
34 -14 39 -42 12 -57 -25 -13 -196 -189 -200 -205 -2 -8 4 -21 13 -29 19 -20
20 -63 0 -71 -8 -3 -15 -14 -15 -25 0 -11 -9 -25 -21 -31 -11 -7 -25 -24 -30
-40 -6 -15 -19 -30 -30 -33 -49 -13 -3 -89 153 -248 l93 -95 72 1 c43 1 78 7
88 15 12 10 21 10 40 2 20 -9 26 -8 40 14 14 22 23 25 60 23 30 -2 50 2 63 14
10 9 28 17 40 17 13 0 22 6 22 15 0 11 12 14 50 14 28 -1 53 1 57 4 3 4 14 2
24 -3 16 -9 17 -6 12 24 -5 29 -1 36 31 61 31 24 41 26 73 19 21 -4 55 -7 76
-5 21 2 44 -2 52 -9 9 -7 15 -8 20 0 8 13 92 13 97 0 2 -7 52 -12 123 -14 66
-2 149 -9 185 -16 36 -6 84 -9 108 -5 27 4 48 2 57 -5 10 -8 19 -8 34 2 18 11
22 10 34 -6 12 -17 18 -18 47 -7 26 9 35 9 41 -1 5 -7 23 -11 43 -10 26 3 37
-1 45 -17 16 -29 13 -56 -8 -75 -18 -16 -31 -16 -163 -6 -78 6 -156 16 -171
22 -20 8 -31 8 -40 -1 -16 -16 -48 -13 -63 7 -9 11 -13 13 -14 4 0 -8 -7 -11
-17 -8 -12 4 -24 -4 -38 -24 -23 -35 -69 -41 -91 -12 -13 16 -15 16 -28 0 -18
-24 -50 -23 -67 2 -9 13 -29 23 -54 26 l-40 6 24 -20 c13 -11 21 -24 17 -30
-10 -17 -35 -3 -52 30 -9 17 -22 28 -31 26 -25 -5 -28 -28 -4 -28 17 0 21 -6
21 -30 0 -23 -5 -31 -25 -36 -33 -8 -32 -22 3 -30 15 -3 33 -7 40 -10 24 -7
12 -43 -26 -76 -20 -18 -44 -45 -51 -60 -8 -16 -21 -28 -28 -28 -8 0 -30 -16
-48 -36 -19 -20 -39 -33 -45 -29 -6 4 -18 1 -27 -7 -12 -10 -17 -10 -20 -1 -2
7 -11 9 -19 6 -8 -3 -14 1 -14 9 0 8 -9 23 -20 33 -15 14 -23 15 -34 6 -11 -9
-15 -9 -19 1 -4 10 -7 10 -15 -1 -5 -7 -15 -10 -21 -7 -7 5 -11 -1 -11 -14 0
-11 -13 -33 -28 -50 -25 -26 -34 -29 -83 -27 -46 2 -58 -2 -80 -24 -27 -26
-109 -47 -109 -27 0 5 -12 0 -26 -11 -24 -19 -28 -19 -55 -6 -34 18 -63 19
-81 2 -37 -35 -138 -52 -138 -22 0 8 -10 19 -21 26 -27 14 -43 -5 -28 -34 6
-10 7 -36 4 -59 -6 -33 -4 -42 13 -54 18 -13 20 -22 16 -92 -2 -42 -8 -93 -13
-113 -10 -43 -2 -62 19 -49 17 10 40 -5 40 -26 0 -11 15 -13 64 -10 50 3 71 0
95 -15 30 -18 31 -18 41 1 16 30 54 26 69 -7 7 -15 15 -23 19 -17 15 20 48 15
62 -11 7 -14 30 -37 49 -52 20 -15 50 -41 66 -58 26 -26 35 -30 65 -25 32 5
38 2 80 -46 25 -29 53 -53 63 -53 9 -1 17 -8 17 -16 0 -8 4 -15 9 -15 17 0
101 -113 101 -136 0 -14 7 -27 15 -30 18 -7 19 -37 3 -64 -10 -16 -10 -24 0
-40 16 -26 15 -59 -2 -66 -7 -3 -16 -22 -20 -43 -3 -22 -16 -46 -31 -59 -15
-13 -25 -32 -25 -49 0 -16 -11 -39 -27 -55 -23 -25 -26 -32 -15 -48 20 -32 14
-49 -22 -64 -33 -14 -35 -17 -33 -57 2 -37 -1 -44 -28 -59 -18 -10 -31 -26
-33 -41 -2 -13 -11 -32 -19 -41 -11 -12 -12 -21 -4 -37 15 -27 14 -58 -3 -64
-7 -3 -16 -24 -20 -47 -6 -38 -9 -42 -32 -37 -26 5 -44 -15 -44 -48 0 -9 -7
-23 -15 -31 -17 -18 -22 -144 -5 -144 14 0 13 -57 -1 -66 -7 -4 -2 -16 14 -33
14 -14 27 -35 29 -46 3 -16 10 -19 46 -17 41 3 42 3 42 -27 0 -32 18 -51 29
-32 5 8 22 10 49 5 37 -6 42 -10 42 -33 0 -15 4 -31 9 -36 6 -6 4 -29 -3 -60
-12 -43 -17 -50 -39 -50 -13 0 -34 -8 -44 -17 -24 -22 -32 -22 -55 -1 -16 14
-23 15 -38 5 -26 -16 -50 -15 -70 3 -14 13 -22 14 -44 4 -22 -10 -29 -9 -46 6
-11 10 -20 24 -20 32 0 7 -4 13 -10 13 -5 0 -22 14 -37 31 -28 31 -28 31 -102
25 -67 -7 -75 -5 -88 14 -8 12 -22 20 -31 18 -33 -7 -95 36 -119 82 -27 51
-28 57 -8 76 8 9 15 30 15 48 0 22 8 40 25 56 14 13 25 29 25 35 0 7 10 24 21
39 16 20 19 30 10 39 -16 16 -14 47 4 53 8 4 15 18 15 33 0 15 7 36 15 47 21
27 19 34 -11 34 -24 0 -26 3 -19 28 4 15 9 50 12 77 3 28 12 58 21 68 17 19
26 125 11 143 -6 7 -4 16 6 24 12 10 14 26 9 75 -6 57 -5 62 15 68 14 3 21 13
21 31 0 14 6 29 13 33 8 4 17 26 20 48 4 22 11 41 17 43 9 3 40 53 40 64 0 2
-16 2 -35 0 -20 -2 -50 2 -67 9 -24 10 -33 10 -36 1 -5 -15 -35 -15 -50 0 -9
9 -15 8 -27 -8 -8 -10 -15 -14 -15 -7 0 6 -8 11 -17 11 -10 0 -27 3 -37 7 -15
6 -18 5 -14 -6 4 -11 -5 -13 -46 -10 -28 1 -56 7 -63 13 -8 6 -22 2 -45 -14
-50 -36 -58 -45 -58 -70 0 -17 -8 -27 -30 -35 -19 -7 -30 -18 -30 -31 0 -10
-11 -24 -25 -30 -20 -9 -25 -19 -25 -47 0 -28 -5 -38 -25 -47 -14 -6 -25 -17
-25 -24 0 -8 -12 -21 -26 -30 -23 -16 -25 -21 -19 -66 6 -42 4 -53 -14 -72
-18 -19 -22 -36 -23 -91 0 -38 -7 -80 -14 -94 -8 -14 -14 -46 -14 -71 0 -26
-5 -51 -12 -58 -9 -9 -7 -12 10 -12 21 0 22 -3 22 -102 0 -87 -4 -107 -20
-128 -11 -14 -20 -37 -20 -52 0 -16 -4 -28 -9 -28 -4 0 -12 -15 -17 -32 -5
-18 -19 -38 -31 -43 -27 -14 -103 -91 -103 -105 0 -6 -13 -10 -30 -10 -16 0
-30 -4 -30 -9 0 -5 -9 -7 -20 -4 -15 4 -20 0 -20 -16 0 -17 -6 -21 -30 -21
-16 0 -30 -4 -30 -10 0 -5 -7 -10 -15 -10 -25 0 -75 -42 -75 -62 0 -22 -46
-98 -59 -98 -6 0 -12 -9 -16 -19 -3 -11 -31 -44 -61 -73 -30 -29 -57 -63 -60
-75 -5 -19 -13 -23 -43 -23 -28 0 -38 -5 -46 -22 -6 -13 -20 -27 -32 -33 -14
-6 -23 -19 -23 -32 0 -13 -8 -24 -20 -28 -11 -4 -27 -22 -35 -41 -8 -19 -20
-34 -28 -34 -7 0 -22 -17 -32 -37 -11 -21 -21 -41 -22 -44 -2 -3 8 -12 23 -20
26 -13 26 -16 22 -87 -4 -64 -3 -74 13 -83 28 -14 27 -94 -1 -111 -12 -8 -20
-24 -20 -39 0 -14 -8 -33 -17 -41 -21 -18 -73 -29 -73 -16 0 5 -9 12 -19 16
-26 9 -161 133 -161 147 0 6 -16 28 -35 49 -34 37 -43 64 -27 80 12 13 8 136
-4 136 -7 0 -19 11 -27 24 -9 12 -32 31 -51 40 -41 19 -39 16 -26 50 7 19 4
35 -15 71 -26 47 -32 75 -17 75 5 0 17 18 28 40 13 29 24 39 36 36 9 -2 19 1
21 8 3 8 9 7 20 -3 15 -12 17 -10 17 18 l0 32 83 -3 82 -3 28 37 c28 40 34 63
17 73 -15 9 -12 55 4 55 9 0 16 17 21 46 5 39 9 45 28 42 29 -4 86 57 68 75
-14 14 -15 57 -1 57 6 0 10 7 10 15 0 8 9 19 20 25 12 6 20 21 20 35 0 13 14
40 30 58 17 19 30 37 30 41 0 9 144 156 153 156 18 0 93 66 89 78 -2 7 2 19 8
27 9 11 10 22 1 42 -6 16 -13 76 -14 136 -3 88 -7 110 -21 120 -23 17 -13 84
14 92 30 10 42 151 15 179 -15 15 -21 56 -7 56 9 0 6 355 -3 394 -5 16 -3 31
2 35 5 3 13 23 16 44 5 32 2 40 -18 53 -15 10 -27 30 -31 52 -9 52 -29 71 -67
66 -29 -4 -35 0 -64 47 -34 52 -41 85 -22 91 18 6 -12 58 -33 58 -10 0 -18 4
-18 9 0 6 -17 11 -37 13 -28 2 -41 9 -48 25 -5 12 -19 23 -30 25 -13 2 -24 15
-31 38 -8 24 -21 38 -41 47 -17 7 -33 19 -36 27 -4 9 -14 12 -26 9 -12 -3 -28
1 -37 8 -9 7 -26 18 -38 24 -16 9 -21 20 -20 48 1 20 -3 37 -7 37 -5 0 -9 11
-9 24 0 16 23 47 76 99 77 76 117 97 133 69 13 -24 34 -3 28 28 -3 15 -1 32 4
37 6 6 12 41 12 77 1 45 7 70 16 75 8 5 11 16 8 25 -3 8 0 21 7 28 7 8 16 30
20 51 4 24 16 43 32 54 l25 16 -7 113 -7 112 24 4 c20 2 23 8 21 32 -2 17 2
40 9 53 11 21 20 23 81 23 39 0 68 -4 68 -10 0 -5 12 -10 28 -10 15 0 37 -8
50 -18 19 -15 35 -17 90 -11 75 7 119 6 129 -4 3 -4 12 -2 19 4 10 8 15 5 20
-15 7 -30 29 -52 38 -37 4 5 -5 26 -19 47 -31 46 -34 108 -6 124 11 5 23 20
27 32 4 13 18 37 32 53 25 30 25 30 4 33 -25 4 -29 17 -9 29 7 4 19 22 26 38
7 17 37 50 67 75 30 25 98 89 151 143 92 93 117 109 139 87 8 -8 14 -6 23 3
16 20 111 20 133 0z"/>
</g>
</svg>
